<?xml version="1.0" encoding="utf-8"?><!DOCTYPE svg PUBLIC "-//W3C//DTD SVG 1.1//EN" "http://www.w3.org/Graphics/SVG/1.1/DTD/svg11.dtd"><svg version="1.1" id="Contours" xmlns="http://www.w3.org/2000/svg" xmlns:xlink="http://www.w3.org/1999/xlink" x="0px" y="0px" width="921.169678px" height="921.169678px" viewBox="0.000000 0.000000 921.169678 864.347717" enable-background="new 0 0 921.169678 921.169678" xml:space="preserve" stroke="black" fill="none" stroke-linecap='round' stroke-linejoin='round'><path class="selected"  fill="#000000" opacity="1.000000" stroke="none" 
 	d="
M911.214729 136.368914 C911.214729 150.034106 910.742866 163.222186 911.379585 176.356509 C911.808113 185.194552 913.877449 193.946688 915.066292 202.757022 C915.626655 206.910342 915.948006 211.104006 916.191353 215.290225 C916.609383 222.479754 916.994392 229.674670 917.191231 236.872836 C917.602180 251.897631 917.116707 266.996752 918.497688 281.926745 C919.344246 291.078051 919.193977 300.126299 919.147285 309.206774 C918.992500 339.232928 918.894234 369.267260 918.051948 399.278216 C917.692573 412.085131 915.164986 424.817858 914.360969 437.630663 C913.891609 445.108019 915.074592 452.674456 915.172249 460.205248 C915.346138 473.610613 916.193001 487.105792 911.145332 500.013232 C910.631294 501.327777 910.201118 503.419421 910.862434 504.325244 C914.450020 509.239703 913.766609 514.469622 913.344185 520.065203 C912.285408 534.091204 911.987068 548.172869 911.150703 562.218402 C910.897713 566.466387 910.373237 570.830584 909.055183 574.839800 C908.046455 577.908099 907.597664 580.417254 909.448006 583.144305 C909.865547 583.759600 910.276131 584.639239 910.166511 585.311907 C909.174995 591.394610 910.817207 597.617083 908.425117 603.742877 C907.219978 606.828997 908.214729 610.774249 908.214729 614.331011 C908.214729 621.720660 908.214729 629.110369 908.214729 636.500018 C908.214729 637.499896 908.233772 638.500262 908.211861 639.499652 C907.882576 654.526629 907.719490 669.561053 907.056953 684.573443 C906.937446 687.280047 904.709175 689.874285 903.546883 692.560320 C902.691353 694.537493 901.313484 696.585284 901.329475 698.592364 C901.404610 708.012469 901.845711 717.430804 902.226814 726.846881 C902.497871 733.543902 903.026924 740.233721 903.148933 746.932086 C903.203926 749.953265 902.249946 752.993060 902.307991 756.013812 C902.355354 758.479449 903.341621 760.912737 903.697883 763.391070 C904.020332 765.634295 904.580696 768.032488 904.121467 770.165362 C902.351448 778.385394 900.331184 786.557452 898.176399 794.687029 C896.565864 800.763262 890.033882 805.237689 883.409920 805.386126 C871.214668 805.659319 859.008308 805.783892 846.831550 806.437579 C833.897591 807.131976 820.978401 808.215899 808.079109 809.413287 C795.946968 810.539507 783.850593 812.049761 771.735664 813.364947 C759.291328 814.716082 746.870003 816.426653 734.390633 817.270648 C718.529365 818.343218 702.625313 819.010882 686.729744 819.289446 C667.571113 819.625079 648.397896 819.122943 629.239021 819.452960 C615.842537 819.683734 602.448555 820.536273 589.073921 821.419512 C577.639961 822.174700 566.235115 823.370684 554.817085 824.368426 C539.537971 825.703631 524.262947 827.088946 508.977669 828.349139 C499.597023 829.122576 490.206184 829.802752 480.809547 830.344744 C467.592720 831.107012 454.361427 831.620257 441.145607 832.397845 C432.413765 832.911639 423.674293 833.482318 414.981636 834.426837 C405.008003 835.510516 395.101265 837.208514 385.128731 838.305255 C378.971962 838.982318 372.727821 838.834490 366.555946 839.410784 C353.763405 840.605242 340.995888 842.064776 328.212196 843.357501 C320.995552 844.087298 313.758156 844.616595 306.546364 845.388384 C294.759010 846.649859 282.990547 848.087969 271.203194 849.349444 C263.991432 850.121234 256.750069 850.616595 249.538307 851.388384 C237.750954 852.649920 225.977104 854.037676 214.196403 855.361834 C213.702705 855.417315 213.196876 855.355242 212.697426 855.370928 C202.169945 855.701678 191.632500 855.848651 181.117515 856.413165 C165.690941 857.241412 150.272743 858.264788 134.865669 859.403887 C123.767883 860.224322 112.710152 861.636370 101.605667 862.304156 C86.232406 863.228716 70.834816 863.780413 55.441887 864.331194 C49.090675 864.558489 46.915798 862.467364 45.175606 856.474444 C39.563393 837.146990 39.689037 817.337847 40.336017 797.544940 C40.606514 789.269610 43.121990 781.022357 42.980358 772.790545 C42.811123 762.954608 42.874439 752.694171 36.287384 744.133624 C35.424751 743.012530 35.285354 741.136981 35.260311 739.603594 C35.153271 733.048846 35.214729 726.491473 35.214729 719.935015 C35.214729 713.102435 35.464588 706.258441 35.153652 699.440081 C34.732555 690.206072 33.749058 680.998248 33.290535 671.765093 C33.141338 668.760821 34.280445 665.695452 34.152378 662.686785 C32.999771 635.609149 30.460823 608.606280 30.889694 581.430865 C30.988476 575.171710 26.462335 568.967303 25.045748 562.522051 C23.491789 555.451800 20.868791 548.701678 20.982996 541.079669 C21.170935 528.536700 19.916326 515.969561 19.163534 503.418933 C19.083639 502.086901 18.413957 500.739184 17.810528 499.499682 C16.297972 496.392748 15.346460 493.641100 18.025255 490.335040 C18.964531 489.175891 18.094122 486.116015 17.408182 484.147753 C14.002257 474.374987 10.445168 464.643115 10.271434 454.134295 C10.226984 451.445605 11.363512 448.703417 11.133427 446.057482 C9.977343 432.762560 8.213512 419.512347 7.379327 406.201556 C7.045472 400.874377 8.720948 395.445483 9.139691 390.036395 C9.340386 387.443957 9.036633 384.721087 8.438194 382.180529 C7.626594 378.735003 5.537539 375.449450 5.353263 372.022326 C4.671722 359.347186 4.580829 346.641131 4.203874 333.948596 C3.925817 324.586077 3.351541 315.227954 3.285308 305.865191 C3.242685 299.839923 4.291835 293.797381 4.109058 287.785143 C3.889059 280.548541 2.792485 273.342089 2.289216 266.107684 C2.187705 264.648455 2.565477 262.581408 3.540040 261.722979 C7.391410 258.330615 8.928764 255.459704 6.556518 249.785861 C4.301885 244.393298 4.567529 237.830889 4.275521 231.756381 C3.501648 215.657916 5.485628 199.793826 7.998279 183.887484 C9.509263 174.322207 8.373232 164.369448 9.319052 154.677905 C11.375885 133.602160 6.402096 112.854754 7.017537 91.826006 C7.359166 80.153025 4.627540 68.669756 1.013566 57.421801 C-0.339851 53.209483 -0.156317 48.232009 0.512784 43.781764 C0.762048 42.123889 4.467389 39.696604 6.477828 39.806010 C17.803211 40.422328 19.201626 32.067359 21.172035 24.286284 C23.468984 15.215722 26.110130 13.199200 35.502865 14.393801 C39.578438 14.912148 43.597015 15.942637 47.680378 16.323676 C59.752960 17.450224 71.829239 18.711550 83.934044 19.266223 C94.634209 19.756533 105.376465 19.242232 116.096756 19.400673 C129.792412 19.603089 143.485222 20.288010 157.178139 20.257365 C163.569374 20.243062 169.945351 18.759144 176.352211 18.467496 C180.523170 18.277630 184.735069 19.286013 188.932472 19.323010 C202.763176 19.444916 216.609108 19.732213 230.421928 19.220316 C237.659080 18.952111 244.839500 17.149506 252.045174 16.037507 C253.453468 15.820174 254.866859 15.362794 256.266487 15.403924 C272.535042 15.882020 288.539192 13.524603 304.630684 11.581024 C314.213631 10.423565 324.059395 11.109293 333.770912 11.439515 C344.170906 11.793148 354.548591 12.762173 364.942451 13.349092 C372.631142 13.783258 380.331856 14.343301 388.024086 14.298714 C400.386116 14.227058 412.744087 13.566125 425.106789 13.433651 C430.297279 13.378031 435.498543 14.351870 440.689430 14.300625 C450.385933 14.204902 460.077919 13.462342 469.772743 13.441777 C478.133003 13.424041 486.504219 14.460715 494.853310 14.270921 C507.917396 13.973943 520.960823 12.841504 534.024605 12.431693 C544.070747 12.116545 554.134712 12.368914 564.190742 12.368914 C578.855781 12.368914 593.520820 12.368914 608.185860 12.368914 C620.241646 12.368914 632.299141 12.247000 644.352730 12.411268 C652.550056 12.522982 660.751655 13.456191 668.933967 13.267306 C680.332466 13.004178 691.848457 12.894924 703.069710 11.148706 C716.715584 9.025163 729.936836 12.621303 743.355232 12.305435 C760.583259 11.899891 777.805000 11.132595 795.020698 10.331554 C804.919685 9.870960 814.839302 9.377740 824.680611 8.279687 C836.198128 6.994611 847.625496 4.921530 859.121040 3.411852 C865.980049 2.511085 872.886238 1.920176 879.787117 1.402332 C886.303291 0.913363 892.939278 1.292169 899.342903 0.218150 C907.176033 -1.095631 910.084846 3.736013 913.622383 9.036722 C915.791389 12.286856 914.619148 14.972569 914.258797 18.003493 C914.131294 19.075846 914.511238 20.208523 914.659492 21.313639 C915.581978 20.761305 916.544868 20.265328 917.415596 19.640820 C918.292000 19.012330 919.076668 18.256051 919.901497 17.555739 C920.005928 18.679038 920.145943 19.800345 920.208748 20.925963 C920.554512 27.119822 921.389778 33.337367 921.115242 39.504866 C920.413643 55.268801 919.767464 71.071108 918.051643 86.743395 C916.487923 101.026133 913.505195 115.151446 911.261299 129.364031 C910.926887 131.481982 911.214729 133.698168 911.214729 136.368914 M450.714729 53.368914 C433.186226 53.702246 415.658363 54.072795 398.129097 54.359641 C375.436226 54.730994 352.738808 54.885268 330.049934 55.415671 C311.322212 55.853472 292.603065 56.674655 273.882027 57.377139 C257.158028 58.004695 240.438713 58.760169 223.713463 59.349650 C211.465462 59.781333 199.212074 60.079074 186.958763 60.318392 C185.270805 60.351355 183.532921 59.288096 181.880165 59.434130 C168.090095 60.652609 154.332756 62.302634 140.526131 63.244601 C134.548591 63.652430 128.475395 62.375933 122.450844 62.431040 C105.421974 62.586810 88.396133 63.056040 71.368294 63.355906 C66.536835 63.440997 61.702431 63.341876 56.869709 63.375269 C49.668667 63.425028 45.961212 66.884448 46.296844 73.930483 C46.546604 79.173770 47.965404 84.368502 48.125439 89.607409 C48.432346 99.654414 48.466347 109.725298 48.152473 119.771876 C47.739124 133.002581 46.917011 146.221346 46.203907 159.441638 C45.589397 170.834063 44.799316 182.217410 44.240333 193.612307 C43.781418 202.967349 43.440586 212.331088 43.237347 221.695101 C42.828030 240.553897 42.282368 259.415576 42.287868 278.275897 C42.293613 297.969714 42.725750 317.667620 43.265221 337.355700 C43.677963 352.418658 44.618069 367.466357 45.197170 382.525714 C45.936249 401.745257 46.493782 420.971911 47.274917 440.189593 C47.388348 442.980242 48.402927 445.723467 48.839935 448.513751 C50.336788 458.071002 52.493736 467.598101 53.037372 477.213671 C53.788383 490.497210 53.428978 503.720873 55.905926 517.015338 C58.325558 530.002215 58.178135 543.463458 59.229084 556.710772 C59.815853 564.107073 60.688255 571.482379 61.186035 578.883685 C62.278602 595.128619 63.153145 611.388140 64.241981 627.633319 C64.749176 635.200579 65.268883 642.785601 66.272362 650.297198 C68.417465 666.354510 71.221619 682.329302 73.107796 698.413897 C74.634941 711.436846 75.303245 724.564898 76.188370 737.657366 C76.980331 749.371783 77.677193 761.095965 78.178345 772.825884 C78.677673 784.513140 78.896721 796.212603 79.203689 807.907672 C79.278000 810.738848 79.204422 813.573626 79.216736 816.406695 C79.248947 823.818987 82.990341 826.800128 90.304352 825.384478 C95.874557 824.306414 101.434868 822.951312 107.064590 822.451129 C121.127083 821.201739 135.225670 820.355853 149.311546 819.373309 C159.199669 818.683611 169.091133 818.041827 178.980339 817.367571 C193.565330 816.373126 208.168831 814.365313 222.729011 814.643633 C238.117180 814.937884 252.986503 812.023882 268.077797 810.406756 C282.172035 808.896380 296.287361 807.538531 310.418251 806.430255 C318.920021 805.763445 327.479744 805.864092 335.993446 805.311419 C341.569954 804.949359 347.119820 804.103533 352.665321 803.353716 C362.119697 802.075457 371.550484 800.618060 381.013008 799.406573 C385.346229 798.851824 389.748482 798.848651 394.089516 798.340045 C404.713386 797.095355 415.289772 795.305499 425.943062 794.495989 C434.284767 793.862139 442.713112 794.368914 451.102974 794.368914 C459.768959 794.368914 468.437172 794.488177 477.100136 794.325884 C482.632576 794.222247 488.742958 795.098956 493.563209 793.077654 C503.538246 788.894549 513.700508 788.295367 524.111214 788.415850 C528.309456 788.464434 532.546699 789.580218 536.685676 789.237567 C542.480720 788.757891 548.174202 787.166339 553.958504 786.415667 C563.020698 785.239642 572.120369 784.348712 581.208137 783.373797 C593.819343 782.020953 606.407783 780.200579 619.056282 779.533404 C628.540169 779.033099 638.104988 780.352862 647.630745 780.300921 C665.825874 780.201739 684.028816 779.970721 702.209663 779.290667 C719.141182 778.657305 736.058174 777.511431 752.962044 776.314776 C762.901375 775.611163 772.793098 774.261370 782.723152 773.395770 C795.464912 772.285113 808.223762 771.370013 820.975044 770.368365 C825.170296 770.038836 829.392708 769.903033 833.554085 769.327105 C842.186897 768.132403 850.764839 766.523333 859.409859 765.440631 C864.075874 764.856158 867.232368 762.264056 867.158028 757.548663 C867.086616 753.016314 866.458382 748.495806 866.231453 743.962237 C865.519600 729.741778 864.991463 715.511187 864.164924 701.297747 C863.792305 694.890643 862.959236 688.505633 862.197151 682.126971 C860.928169 671.505755 858.500191 660.900714 858.471931 650.283709 C858.433967 636.035174 860.122749 621.774554 861.239387 607.532427 C862.464180 591.910784 864.012154 576.313922 865.172127 560.687945 C866.053474 548.814288 866.643623 536.916339 867.185921 525.021075 C867.657844 514.666277 867.521065 504.272723 868.307869 493.946154 C869.245796 481.636004 870.796211 469.369006 872.237617 457.101641 C873.802864 443.781176 876.113594 430.521960 877.060921 417.162402 C878.075935 402.849963 877.872383 388.451464 878.235359 374.091448 C878.258858 373.163409 878.457039 372.196276 878.783821 371.326159 C882.118355 362.445880 880.656624 353.257495 880.080452 344.258868 C879.281319 331.777972 877.524238 319.359332 876.224129 306.909197 C875.505195 300.024706 875.639778 292.951373 874.065376 286.275500 C870.135933 269.614794 867.419807 252.913745 868.142158 235.726657 C868.303535 231.885836 866.953316 227.947360 867.330147 224.156329 C868.322090 214.175509 871.089119 204.237277 870.975777 194.306918 C870.696968 169.890826 872.515205 145.685534 875.098152 121.454440 C876.429085 108.969065 876.796089 96.361353 877.143257 83.796336 C877.474617 71.806429 877.106514 59.798709 877.270820 47.801901 C877.332161 43.326235 874.726082 41.701525 871.091072 41.471430 C868.261787 41.292334 865.362495 41.957934 862.514839 42.384810 C856.251106 43.323744 850.024361 44.554305 843.738289 45.286864 C836.044746 46.183440 828.314461 46.822379 820.583687 47.318312 C816.211555 47.598788 811.805305 47.299216 807.416695 47.381266 C790.568855 47.696250 774.048836 52.056056 756.970955 50.613848 C747.568367 49.819808 737.955574 51.963301 728.437324 51.965445 C719.009346 51.967570 709.578987 50.976122 700.154243 50.351290 C696.785347 50.127940 693.388374 49.926913 690.077644 49.317290 C684.857735 48.356127 679.855904 47.259089 674.688728 50.129370 C673.060860 51.033656 670.313545 49.906638 668.076668 49.733744 C662.099129 49.271716 656.091987 48.235011 650.150032 48.524012 C643.365547 48.853987 636.653511 51.092272 629.883980 51.231249 C610.726875 51.624533 591.556221 51.418788 572.391548 51.323828 C568.861641 51.306338 565.340950 50.537196 561.805061 50.404139 C554.976143 50.147166 548.138374 50.130416 541.306465 49.938216 C539.384224 49.884139 537.438118 49.242217 535.556465 49.423850 C526.459663 50.301947 517.401558 51.912551 508.291786 52.255507 C489.445503 52.965022 470.575172 53.035578 450.714729 53.368914 M913.714729 51.368910 C914.548042 51.412554 916.023018 51.710471 916.121223 51.462782 C918.776680 44.762213 920.807564 37.945605 918.182808 30.729979 C917.790596 29.651805 916.971077 28.729075 916.349251 27.734419 C915.637764 28.935597 914.402962 30.094727 914.302559 31.345000 C913.780647 37.840174 913.548042 44.358588 913.714729 51.368910 z"/><path class="selected"  fill="#000000" opacity="1.000000" stroke="none" 
 	d="
M612.214729 230.368914 C620.408638 230.035601 628.099922 229.527728 635.797066 229.410830 C646.683174 229.245501 657.573982 229.318301 668.462166 229.387209 C675.389900 229.431048 682.391914 227.555682 689.246284 230.292880 C690.313240 230.718951 692.105049 230.587130 693.017586 229.942782 C699.983894 225.023684 708.175545 228.411288 715.607674 226.586642 C716.779365 226.298968 719.821907 228.735705 720.034004 230.197848 C722.006233 243.794055 724.711433 257.432818 724.944710 271.097796 C725.303902 292.133807 723.981026 313.204058 723.175667 334.252276 C722.726814 345.982409 721.841194 357.695239 721.225227 369.419695 C720.513313 382.972125 719.676033 396.522570 719.265633 410.085131 C718.725349 427.937701 718.103462 445.807940 718.370796 463.657763 C718.549446 475.587084 720.616402 487.478716 721.074409 499.416491 C721.383064 507.462329 719.496712 515.287188 715.626839 522.603106 C713.870369 525.923724 711.902840 529.676104 714.256416 533.651995 C714.692757 534.389056 715.672005 534.804827 716.400642 535.368914 C716.672005 534.709429 716.805977 533.933856 717.244209 533.415423 C718.080147 532.426592 719.089790 531.584490 720.027290 530.681475 C720.423103 531.850665 721.151924 533.016802 721.162422 534.189471 C721.253120 544.353533 720.714363 554.549578 721.337349 564.676165 C722.176582 578.318499 723.736824 591.924029 725.280037 605.512164 C725.978035 611.659075 723.252022 615.689593 716.422859 616.273944 C711.708137 616.677203 709.256538 618.825701 708.175178 623.276934 C706.979805 628.197283 702.656135 628.977007 698.656624 629.282061 C690.484932 629.905291 682.254036 629.768450 674.086616 630.428790 C660.290413 631.544024 646.530769 633.104388 632.743843 634.344195 C623.866646 635.142474 614.954658 635.560076 606.082405 636.402911 C593.457588 637.602313 580.856453 639.050006 568.242195 640.363177 C561.522957 641.062579 554.764168 641.469317 548.082832 642.424944 C538.700569 643.766924 529.377327 645.518267 520.021248 647.048174 C516.881782 647.561480 513.723579 647.968646 510.566231 648.362750 C497.094215 650.044085 483.624519 651.746722 470.143501 653.353472 C461.069069 654.434954 451.950111 655.173358 442.899940 656.420123 C432.395302 657.867144 421.958168 659.797808 411.465126 661.337542 C403.570686 662.495989 395.620979 663.274432 387.719856 664.391558 C376.566261 665.968646 365.447945 667.797869 354.289528 669.337664 C345.893776 670.496050 337.437721 671.222369 329.048134 672.418719 C323.135109 673.261859 317.281990 674.537127 311.413887 675.679949 C304.101539 677.104022 300.760536 677.384539 297.949531 668.818377 C295.591682 661.633074 295.390053 655.753436 302.058479 650.940692 C303.210914 650.109027 303.898384 648.633074 304.800606 647.454791 C302.760475 646.771014 300.562446 645.211993 298.706032 645.546893 C287.458992 647.575396 281.084755 642.671038 281.252083 631.346270 C281.412544 620.483660 281.689491 609.615618 282.260475 598.768023 C283.081245 583.175555 283.973152 567.578997 285.296272 552.023455 C286.240883 540.918231 285.509804 530.026385 283.227638 519.176592 C283.126930 518.697894 283.217964 518.179461 283.214271 517.679583 C282.881447 472.658740 282.392097 427.638140 282.318550 382.616870 C282.298866 370.562914 283.517464 358.505084 284.233650 346.452960 C284.443733 342.917681 284.866188 339.394366 285.219612 335.868426 C285.495430 333.116473 284.636177 331.377917 281.775490 330.302691 C273.578926 327.221911 271.208107 320.021411 270.281776 312.335833 C268.704933 299.253161 267.468910 286.127246 266.242653 273.005206 C265.428810 264.296649 264.709267 255.571704 264.278023 246.837756 C264.010750 241.424990 266.301948 239.226321 271.789528 239.407199 C288.847175 239.969363 305.905250 241.345492 322.951698 241.185519 C339.542457 241.029833 356.108650 239.008395 372.706550 238.524462 C380.736030 238.290316 388.821846 240.311617 396.867012 240.201983 C405.352638 240.086352 413.860878 238.930483 422.285347 237.716342 C432.744942 236.208880 443.081612 233.763186 453.567604 232.564211 C457.989906 232.058550 462.645180 234.115969 467.217811 234.257647 C472.230385 234.412966 477.284920 233.277896 482.294319 233.456866 C492.859993 233.834384 503.414131 235.332430 513.962166 235.231661 C533.187263 235.047991 552.400825 233.830355 571.627144 233.489626 C577.669502 233.382556 583.730110 234.785388 589.798836 235.303652 C591.122444 235.416674 592.843452 235.102603 593.823921 234.302249 C599.172249 229.936511 605.413521 230.116107 612.214729 230.368914 M578.714729 262.368914 C568.326851 263.035571 557.942573 264.176959 547.550239 264.255480 C532.694527 264.367694 517.832710 263.710528 502.974312 263.349169 C502.043098 263.326525 501.125679 262.937853 500.190101 262.858691 C494.064033 262.340685 487.906593 261.247149 481.813576 261.525927 C474.365791 261.866686 466.998146 263.713061 459.547920 264.297595 C443.816902 265.531909 428.064064 266.575457 412.301765 267.291033 C402.932381 267.716357 393.520851 267.135912 384.140816 267.421435 C368.580757 267.895098 353.029365 268.670214 337.477943 269.396441 C334.441017 269.538226 331.216591 269.491595 328.452522 270.528460 C325.906624 271.483477 323.318062 273.413287 321.826515 275.636950 C321.066658 276.769702 323.071693 279.478320 323.140541 281.498004 C323.346748 287.546984 323.458443 293.619586 323.157234 299.660571 C322.713478 308.560473 321.842964 317.438342 321.224861 326.330523 C320.514564 336.549365 319.731666 346.766589 319.255348 356.997302 C318.742378 368.015429 318.331978 379.046984 318.259773 390.075183 C318.110329 412.903216 318.125740 435.733782 318.352638 458.560534 C318.375282 460.839770 320.318642 463.099902 321.370582 465.368914 C321.985298 463.357836 322.546577 461.328204 323.236946 459.343432 C323.589027 458.331256 324.172890 457.399706 324.651955 456.431689 C325.172859 457.507159 326.122261 458.573718 326.144783 459.659472 C326.283974 466.379138 326.237038 473.103289 326.184975 479.825396 C326.178841 480.616168 325.763985 481.403735 325.538612 482.192797 C325.097298 481.375781 324.393318 480.598590 324.262276 479.734545 C323.805977 476.725207 323.717140 473.652300 323.128090 470.674914 C322.905464 469.549578 321.701362 468.618456 320.944679 467.598864 C320.237770 468.485858 319.085426 469.289965 318.902321 470.274371 C318.175300 474.182604 317.096077 478.189166 317.345528 482.082507 C317.939827 491.359149 319.172096 500.597125 320.250862 509.838580 C320.465217 511.674822 321.144661 513.456866 321.609657 515.263873 C322.478004 513.360735 323.604042 511.525775 324.132088 509.532488 C324.544594 507.975390 324.106361 506.213061 324.237862 504.557147 C324.492012 501.356219 324.807045 498.155383 325.263710 494.978472 C325.387489 494.117358 326.108925 493.342181 326.556068 492.527575 C326.775642 493.330676 327.169716 494.130480 327.184761 494.937396 C327.253151 498.602130 326.264900 502.609942 327.431190 505.857012 C329.309669 511.086871 327.055946 514.589129 324.644905 518.552935 C323.484749 520.460284 322.395454 522.849993 322.471504 524.978533 C322.629524 529.400775 323.731727 533.780474 324.160622 538.205279 C324.420875 540.890582 324.250099 543.494097 328.237160 541.922625 C328.401741 541.857745 329.182747 542.603594 329.170479 542.953997 C328.894813 550.816424 328.861305 558.705218 328.140175 566.529864 C327.098213 577.835528 325.017799 589.064654 324.383247 600.382647 C323.879768 609.362567 325.314308 618.438983 325.063026 627.449542 C324.894600 633.489642 331.827339 641.262347 338.192421 640.394854 C341.700569 639.916766 345.257454 639.801592 348.770149 639.349993 C358.722847 638.070635 368.737068 637.097430 378.592628 635.276202 C393.306709 632.557086 407.988899 629.994830 423.030708 630.334307 C425.445198 630.388751 427.897011 630.151629 430.285499 629.764849 C441.044960 628.022235 451.773079 626.082232 462.542641 624.407488 C468.231483 623.522845 473.992866 623.115740 479.702400 622.350787 C489.157143 621.083941 498.602974 619.746295 508.039802 618.352069 C513.512398 617.543475 518.959419 616.562274 524.419014 615.665667 C535.185188 613.897479 545.958137 612.169879 556.716682 610.356524 C564.022529 609.125140 571.347664 607.961444 578.593452 606.432452 C587.290474 604.597186 595.865303 602.164019 604.585945 600.467608 C609.171638 599.575579 613.998176 599.990496 618.639961 599.302691 C625.956489 598.218524 633.162483 596.280718 640.499946 595.472369 C650.342537 594.387957 660.269905 594.091509 670.153023 593.351824 C678.467171 592.729449 679.307381 591.831927 679.168953 583.383013 C679.113899 580.017230 678.235176 576.655230 678.283821 573.299456 C678.368965 567.435076 679.204719 561.573870 679.149361 555.716754 C679.023140 542.355425 678.586189 528.996295 678.201607 515.638384 C677.936836 506.442919 677.559822 497.250567 677.211311 488.057635 C676.894356 479.696704 676.492073 471.338641 676.227974 462.976122 C675.843025 450.784838 675.633552 438.587634 675.195259 426.398486 C674.484871 406.641467 676.883552 387.125018 679.081367 367.551104 C680.463386 355.243304 680.745064 342.796282 681.151375 330.399615 C681.467781 320.745165 681.214729 311.072009 681.214729 301.407183 C681.214729 291.075823 680.935005 280.732287 681.382271 270.420336 C681.519356 267.260363 681.211738 264.797442 678.566170 263.486621 C676.671333 262.547839 674.243965 262.499102 672.038643 262.401324 C655.653938 261.674914 639.266426 260.550738 622.877693 260.514758 C608.491463 260.483233 594.102486 261.702258 578.714729 262.368914 M716.214729 537.868914 C711.030647 541.664569 713.942207 547.189166 713.247444 551.938128 C713.139656 552.674883 713.466133 553.475176 713.591865 554.246050 C714.387825 553.865374 715.310371 553.632708 715.958015 553.078631 C718.911934 550.551592 719.242683 542.843096 716.214729 537.868914 z"/><path class="selected"  fill="#000000" opacity="1.000000" stroke="none" 
 	d="
M821.214729 211.368914 C811.800178 212.368929 802.906746 213.743701 793.964241 214.248232 C787.033089 214.639269 779.649727 215.308993 773.154610 213.451724 C758.556953 209.277560 747.468635 200.576861 740.923225 185.936160 C736.556892 176.169634 731.421333 166.689852 729.727424 156.136019 C728.553291 148.820162 727.220589 140.767291 732.316963 134.127307 C734.846626 130.831393 738.399788 128.301852 741.578499 125.527033 C748.906868 119.129702 755.846016 112.162036 763.770576 106.606211 C772.217964 100.683894 781.247078 95.154498 791.740242 93.493952 C795.770698 92.856120 800.541023 92.509303 804.101448 94.048571 C819.053169 100.512545 831.669441 110.068690 838.615242 125.376505 C843.126900 135.319827 847.611336 145.368838 850.899361 155.753176 C856.533089 173.545687 847.884773 196.420245 832.255134 206.696047 C829.087044 208.778979 825.245735 209.837908 821.214729 211.368914 M790.214729 151.868914 C783.794136 152.338107 781.152717 156.560824 779.866341 162.200457 C779.196663 165.136675 775.758919 168.444003 783.242805 167.716387 C790.464607 167.014254 796.651802 164.869174 802.677070 161.389742 C805.502754 159.757968 806.304085 157.839511 803.602119 155.209155 C799.935005 151.639208 795.451668 151.162432 790.214729 151.868914 z"/></svg>